<svg width="389" height="356" viewBox="0 0 389 356" fill="none" xmlns="http://www.w3.org/2000/svg">
<mask id="path-1-outside-1_1_17" maskUnits="userSpaceOnUse" x="-22.2838" y="-22.4604" width="433.276" height="425.831" fill="black">
<rect fill="white" x="-22.2838" y="-22.4604" width="433.276" height="425.831"/>
<path d="M123.23 361.282L180.782 5.91175L265.281 19.5964L207.729 374.966L123.23 361.282ZM5.83265 200.445L18.622 121.474L382.679 180.433L369.889 259.404L5.83265 200.445Z"/>
</mask>
<path d="M123.23 361.282L118.294 360.482L117.495 365.418L122.431 366.217L123.23 361.282ZM180.782 5.91176L181.582 0.976066L176.646 0.176729L175.847 5.11242L180.782 5.91176ZM265.281 19.5964L270.217 20.3957L271.016 15.46L266.081 14.6607L265.281 19.5964ZM207.729 374.966L206.93 379.902L211.865 380.701L212.665 375.766L207.729 374.966ZM5.83265 200.445L0.896959 199.646L0.0976228 204.581L5.03332 205.381L5.83265 200.445ZM18.622 121.474L19.4214 116.538L14.4857 115.739L13.6863 120.675L18.622 121.474ZM382.679 180.433L387.614 181.232L388.414 176.297L383.478 175.497L382.679 180.433ZM369.889 259.404L369.09 264.34L374.026 265.139L374.825 260.203L369.889 259.404ZM128.166 362.081L185.718 6.71109L175.847 5.11242L118.294 360.482L128.166 362.081ZM179.983 10.8475L264.482 24.5321L266.081 14.6607L181.582 0.976066L179.983 10.8475ZM260.346 18.7971L202.793 374.167L212.665 375.766L270.217 20.3957L260.346 18.7971ZM208.528 370.031L124.029 356.346L122.431 366.217L206.93 379.902L208.528 370.031ZM10.7683 201.244L23.5577 122.273L13.6863 120.675L0.896959 199.646L10.7683 201.244ZM17.8227 126.41L381.879 185.369L383.478 175.497L19.4214 116.538L17.8227 126.41ZM377.743 179.634L364.954 258.605L374.825 260.203L387.614 181.232L377.743 179.634ZM370.689 254.468L6.63199 195.509L5.03332 205.381L369.09 264.34L370.689 254.468Z" fill="#2CCB6F" mask="url(#path-1-outside-1_1_17)"/>
</svg>

